<svg xmlns="http://www.w3.org/2000/svg" width="1200" height="627" viewBox="0 0 1200 627" fill="none"><rect width="1200" height="627" fill="#F1F6F4"/><g transform="translate(64 64) scale(0.3051)"><g transform="translate(82 114)"><path d="M0 0 L0 10" stroke="#0B1F1E" stroke-width="6" stroke-linecap="round"/><path d="M0 10 C5.1 10 8.5 13.5 8.5 15.9 C8.5 22.2 4.3 25 0 30 C-4.3 35 -8.5 41.8 -8.5 44.1 C-8.5 46.5 -5.1 50 0 50 C5.1 50 8.5 46.5 8.5 44.1 C8.5 37.8 4.3 35 0 30 C-4.3 25 -8.5 18.2 -8.5 15.9 C-8.5 13.5 -5.1 10 0 10 Z" stroke="#0B1F1E" stroke-width="6" stroke-linejoin="round" fill="none"/><g transform="rotate(-44)"><path d="M0 0 C26 -30 32 -68 0 -104 C-32 -68 -26 -30 0 0 Z" fill="#C7E3DE"/><circle cx="0" cy="-66" r="11.5" fill="#0B1F1E"/><circle cx="0" cy="-66" r="4.5" fill="#C7E3DE"/></g><g transform="rotate(44)"><path d="M0 0 C26 -30 32 -68 0 -104 C-32 -68 -26 -30 0 0 Z" fill="#C7E3DE"/><circle cx="0" cy="-66" r="11.5" fill="#0B1F1E"/><circle cx="0" cy="-66" r="4.5" fill="#C7E3DE"/></g><g transform="rotate(-22)"><path d="M0 0 C26 -30 32 -68 0 -104 C-32 -68 -26 -30 0 0 Z" fill="#0E6B66"/><circle cx="0" cy="-66" r="11.5" fill="#0B1F1E"/><circle cx="0" cy="-66" r="4.5" fill="#C7E3DE"/></g><g transform="rotate(22)"><path d="M0 0 C26 -30 32 -68 0 -104 C-32 -68 -26 -30 0 0 Z" fill="#0E6B66"/><circle cx="0" cy="-66" r="11.5" fill="#0B1F1E"/><circle cx="0" cy="-66" r="4.5" fill="#C7E3DE"/></g><path d="M0 0 C26 -30 32 -68 0 -104 C-32 -68 -26 -30 0 0 Z" fill="#0B1F1E"/><circle cx="0" cy="-66" r="11.5" fill="#C7E3DE"/><circle cx="0" cy="-66" r="4.5" fill="#0E6B66"/></g></g><text x="127" y="107" font-family="DM Mono, monospace" font-weight="500" font-size="46" letter-spacing="-1.6" fill="#0B1F1E">Yutic</text><text x="64" y="217" font-family="DM Mono, monospace" font-size="22" letter-spacing="4.4" fill="#0E6B66">SOFTWARE LAB</text><text x="64" y="296" font-family="DM Mono, monospace" font-weight="500" font-size="62" letter-spacing="-2.8" fill="#0B1F1E">Software for problems</text><text x="64" y="369" font-family="DM Mono, monospace" font-weight="500" font-size="62" letter-spacing="-2.8" fill="#0B1F1E">that don't have</text><text x="64" y="442" font-family="DM Mono, monospace" font-weight="500" font-size="62" letter-spacing="-2.8" fill="#0B1F1E">software yet.</text><text x="64" y="563" font-family="DM Mono, monospace" font-size="20" letter-spacing="2.8" fill="#0E6B66">yutic.com</text><text x="1136" y="563" text-anchor="end" font-family="DM Mono, monospace" font-size="20" letter-spacing="2.8" fill="rgba(0,0,0,0.35)">YUTIC</text></svg>